<svg width="47" height="29" viewBox="0 0 47 29" fill="none" xmlns="http://www.w3.org/2000/svg">
<g clip-path="url(#clip0_2001_1068)">
<path d="M43.9966 3.56483C43.9966 3.59864 43.9966 3.64091 43.9878 3.66627C43.9437 3.99595 43.9437 4.32564 43.9701 4.66378C43.9878 4.74831 44.0054 4.83285 44.0759 4.90048C44.1904 5.02727 44.3665 5.00192 44.437 4.84975C44.4722 4.77367 44.4722 4.69759 44.4546 4.62151C44.3665 4.30028 44.3489 3.96214 44.3401 3.63245C44.3401 3.61555 44.3401 3.59018 44.3401 3.56483C44.437 3.55637 44.5251 3.54792 44.6043 3.54792C44.666 3.53947 44.7188 3.53101 44.7629 3.50565C44.8949 3.43803 44.895 3.29432 44.754 3.22669C44.7012 3.20133 44.6307 3.19287 44.5691 3.19287C44.3489 3.20133 44.1287 3.20133 43.9085 3.20133C43.8293 3.20133 43.75 3.20978 43.6707 3.21823C43.6266 3.22669 43.5738 3.22669 43.5386 3.25205C43.4769 3.27741 43.4417 3.31967 43.4417 3.37885C43.4505 3.43803 43.4769 3.47184 43.5386 3.4972C43.5738 3.52256 43.6178 3.53101 43.6619 3.53101C43.7676 3.53947 43.8821 3.55637 43.9966 3.56483ZM46.4187 3.95369C46.4187 3.96214 46.4275 3.97059 46.4275 3.97059C46.4627 4.19883 46.498 4.41863 46.5244 4.63842C46.5332 4.71449 46.542 4.78212 46.5949 4.8413C46.7094 4.98501 46.8855 4.9681 46.9648 4.81594C47 4.73986 47.0088 4.66378 46.9912 4.57924C46.9384 4.32564 46.9119 4.07203 46.8591 3.82688C46.8238 3.67472 46.7799 3.53101 46.7358 3.39576C46.7094 3.31122 46.6477 3.25204 46.542 3.24359C46.4364 3.22669 46.3571 3.27741 46.313 3.35349C46.2602 3.42111 46.2161 3.48874 46.1809 3.56483C46.1192 3.70008 46.0664 3.83534 45.996 3.96214C45.9871 3.99595 45.9783 4.02132 45.9607 4.04667C45.9519 4.02976 45.9431 4.02132 45.9431 4.02132C45.8286 3.80998 45.7229 3.59864 45.6084 3.39576C45.5908 3.37885 45.582 3.36194 45.5732 3.34504C45.5203 3.26896 45.4587 3.22669 45.3618 3.22669C45.2737 3.23514 45.2032 3.28586 45.1592 3.36194C45.1416 3.39576 45.1416 3.42111 45.1328 3.45493C45.0975 3.72544 45.0535 3.99595 45.0183 4.26646C45.0006 4.41863 44.9918 4.57079 44.9918 4.72295C44.983 4.75676 44.9918 4.79903 45.0094 4.83285C45.0271 4.90047 45.0799 4.94274 45.1504 4.95119C45.2385 4.95965 45.3001 4.93429 45.3265 4.86666C45.3529 4.81594 45.3618 4.77367 45.3706 4.73141C45.4058 4.57924 45.4322 4.43553 45.4587 4.29183C45.4763 4.20729 45.4851 4.13966 45.5115 4.04667C45.5291 4.08049 45.5467 4.10585 45.5644 4.13121C45.6436 4.23265 45.7229 4.33409 45.8198 4.41863C45.9167 4.48625 45.996 4.4778 46.0752 4.40172C46.0928 4.38481 46.1016 4.37636 46.1192 4.35945C46.1985 4.2411 46.2954 4.12276 46.3746 4.0044C46.3923 3.9875 46.4011 3.97059 46.4187 3.95369Z" fill="#3A3B7B"/>
<path d="M26.1244 3.73068C26.0632 3.89133 26.0515 4.00708 26.0798 4.10328C26.111 4.23409 26.192 4.27692 26.302 4.24365C27.3366 3.99812 29.6051 4.69504 30.445 4.88928C30.6431 4.93007 30.8042 4.68465 30.6691 4.46462C30.4718 4.25154 28.2043 3.33924 27.3391 3.2895C26.9999 3.27111 26.3936 3.18764 26.1244 3.73068Z" fill="#3A3B7B"/>
<path d="M34.9904 0.77743C35.1006 0.838508 35.1622 0.896772 35.1927 0.96187C35.238 1.04726 35.2141 1.10634 35.1379 1.13649C34.4541 1.45682 33.5441 2.83591 33.1768 3.31154C33.0877 3.42096 32.8823 3.35738 32.8513 3.17744C32.8577 2.974 33.6643 1.47738 34.1145 1.06975C34.2915 0.910599 34.5837 0.598327 34.9904 0.77743Z" fill="#3A3B7B"/>
<path d="M29.5444 0.0987292C29.6769 0.00291244 29.8145 -0.0306646 29.8848 0.0316042C30.9166 0.878502 31.4637 2.21964 31.8025 3.44742C31.8153 3.47603 31.8161 3.51707 31.8059 3.5599C31.8017 3.59649 31.7738 3.63516 31.7296 3.66507C31.6823 3.6981 31.6416 3.70816 31.6225 3.6797C31.1703 3.08937 28.5875 0.792504 29.5444 0.0987292Z" fill="#3A3B7B"/>
<path d="M7.69524 14.7818C7.94253 14.6051 8.21137 14.458 8.49586 14.3438C8.7935 14.2622 9.11075 14.2757 9.39966 14.3825C9.68851 14.4892 9.93338 14.6833 10.0971 14.9355C10.2435 15.187 10.3008 15.4774 10.2604 15.7629C10.2199 16.0484 10.084 16.3135 9.87289 16.5184C9.70926 16.6845 9.52348 16.8292 9.3205 16.9488C8.41582 17.5097 7.50308 18.0399 6.59039 18.6008C6.40363 18.7412 6.20551 18.8672 5.99793 18.9774C5.68217 19.1285 5.32132 19.169 4.97776 19.0918C4.6342 19.0147 4.32955 18.8247 4.11648 18.5548C3.95719 18.3636 3.82277 18.1546 3.71616 17.9323C2.8515 16.188 1.95481 14.4514 1.12217 12.6763C0.737866 11.908 0.425627 11.0243 0.121393 10.1713C-0.010233 9.92351 -0.0359366 9.63621 0.0497553 9.37047C0.135447 9.10472 0.325774 8.88155 0.580249 8.74842C0.834727 8.61528 1.13327 8.58272 1.4124 8.65759C1.69152 8.73247 1.92921 8.90891 2.0749 9.14934C2.52271 9.72051 2.91911 10.3272 3.25981 10.9628C4.12448 12.4996 4.94912 14.0364 5.78176 15.5272C5.83024 15.6096 5.8837 15.689 5.94188 15.7654C6.56859 15.5125 7.15803 15.1818 7.69524 14.7818Z" fill="#3A3B7B"/>
<path d="M16.6354 14.2457C14.6579 16.4663 11.3433 15.9054 9.67801 13.0469C8.49308 11.0183 8.28493 7.66801 10.8629 5.55488C11.4135 5.11248 12.0717 4.81111 12.7764 4.67888C13.6404 4.56 14.5214 4.70629 15.2936 5.09686C16.0657 5.48742 16.6895 6.10226 17.0757 6.85351C18.4848 9.31244 18.2847 12.4475 16.6354 14.2457ZM15.8347 9.06654C15.6247 8.46228 15.2032 7.94641 14.6418 7.60652C14.3242 7.38922 13.9382 7.28356 13.5489 7.30736C13.1595 7.33115 12.7906 7.48294 12.5042 7.73715C11.3593 8.71307 11.1191 11.026 11.9517 12.4015C12.0579 12.6258 12.2137 12.8251 12.4085 12.9855C12.6033 13.1459 12.8323 13.2636 13.0793 13.3301C13.3264 13.3968 13.5857 13.4107 13.839 13.3711C14.0923 13.3314 14.3335 13.2392 14.5458 13.1007C15.1664 12.6389 15.6217 12.003 15.8484 11.2814C16.0751 10.5598 16.062 9.78831 15.8108 9.07425L15.8347 9.06654Z" fill="#3A3B7B"/>
<path d="M24.7055 10.0348C24.5031 10.0766 24.294 10.0791 24.0904 10.0421C23.887 10.0051 23.6932 9.92954 23.5207 9.81967C23.3697 9.73676 23.2397 9.6228 23.14 9.48591C23.0405 9.34901 22.9737 9.19268 22.9446 9.02804C22.9155 8.86346 22.9248 8.69473 22.9718 8.53398C23.0188 8.37323 23.1024 8.22447 23.2164 8.09839C23.4152 7.84503 23.6973 7.66365 24.0171 7.58357C24.8518 7.35104 25.7112 7.20927 26.579 7.16096C26.7697 7.13967 26.9629 7.15516 27.1472 7.20651C27.3316 7.25792 27.5033 7.34406 27.6525 7.46006C27.8016 7.57599 27.9252 7.71941 28.0158 7.88181C28.1064 8.04421 28.1623 8.22236 28.1802 8.40579C28.4304 9.30677 28.4578 10.2514 28.2603 11.1644C27.5398 14.1151 25.0578 15.1294 22.2717 14.1842C21.4896 13.9315 20.8039 13.4607 20.3022 12.8318C19.633 12.0746 19.1586 11.1771 18.9171 10.2116C18.7214 9.35178 18.7428 8.45964 18.9797 7.60947C19.2164 6.75931 19.6616 5.97582 20.2781 5.32444C20.8632 4.61646 21.6226 4.05929 22.4879 3.70308C23.0346 3.41384 23.6744 3.3316 24.2813 3.47256C24.4189 3.50912 24.5439 3.58037 24.6432 3.67891C24.7425 3.77746 24.8125 3.8997 24.846 4.03298C24.8795 4.16624 24.8752 4.30569 24.8336 4.43685C24.792 4.568 24.7147 4.68609 24.6095 4.77886C24.4096 4.95257 24.1924 5.10699 23.961 5.23991C23.2492 5.67496 22.6298 6.23555 22.1356 6.89199C21.8116 7.31677 21.5885 7.80457 21.482 8.32096C21.3755 8.83736 21.3881 9.36991 21.5191 9.88116C21.7007 10.5782 22.1036 11.2039 22.672 11.6715C24.4333 13.2084 26.7231 11.7253 26.3228 9.62754C25.7384 9.76589 25.226 9.91188 24.7055 10.0348Z" fill="#3A3B7B"/>
<path d="M35.466 14.3684C32.864 15.9053 29.9017 14.3684 29.2532 11.1411C28.7809 8.83586 29.6776 5.6085 32.816 4.37904C33.4838 4.12309 34.208 4.03322 34.9216 4.11778C35.779 4.26842 36.5655 4.67351 37.1702 5.27597C37.7748 5.87842 38.1674 6.64781 38.2922 7.47576C38.8206 10.219 37.6197 13.1466 35.466 14.3684ZM36.3708 9.19698C36.37 8.55865 36.1347 7.94095 35.7062 7.45269C35.4772 7.1507 35.1461 6.93432 34.7695 6.8404C34.3927 6.74654 33.9938 6.78095 33.6406 6.93788C32.2315 7.52183 31.2388 9.64266 31.5991 11.2026C31.6266 11.4474 31.7094 11.6835 31.8419 11.8943C31.9744 12.1052 32.1532 12.2857 32.366 12.4233C32.5787 12.5608 32.8202 12.6522 33.0736 12.6909C33.327 12.7295 33.5861 12.7146 33.8328 12.6472C34.5776 12.3975 35.2225 11.9308 35.6774 11.3122C36.1325 10.6936 36.3749 9.95414 36.3708 9.19698Z" fill="#3A3B7B"/>
<path d="M40.9235 15.0142C40.8842 15.2955 40.7302 15.5502 40.4952 15.7224C40.2602 15.8946 39.9635 15.9702 39.6705 15.9325C39.3775 15.8948 39.1121 15.7469 38.9327 15.5213C38.7532 15.2959 38.6745 15.0111 38.7138 14.7299C38.7531 14.4487 38.9072 14.1939 39.1421 14.0217C39.3771 13.8495 39.6737 13.774 39.9668 13.8117C40.2598 13.8494 40.5252 13.9972 40.7047 14.2227C40.8841 14.4483 40.9628 14.733 40.9235 15.0142ZM40.2269 4.6483C40.3792 4.4251 40.6026 4.25512 40.8638 4.16373C41.1249 4.07233 41.4099 4.06441 41.6761 4.14115C41.9467 4.20614 42.1858 4.3584 42.3535 4.57242C42.5211 4.78646 42.607 5.04925 42.5968 5.31682C42.5615 5.746 42.4946 6.17225 42.3967 6.59237C42.1325 8.01396 41.8762 9.43549 41.596 10.8417C41.4679 11.4027 41.2998 11.9406 41.1156 12.5092C41.0516 12.6869 40.9446 12.8475 40.8034 12.9779C40.7157 13.076 40.6036 13.1512 40.4775 13.1966C40.3514 13.2421 40.2155 13.2562 40.0822 13.2379C39.9489 13.2195 39.8225 13.1691 39.7149 13.0915C39.6073 13.0138 39.5218 12.9113 39.4664 12.7935C39.3712 12.5822 39.3195 12.3551 39.3143 12.125C39.3143 11.1721 39.3143 10.2116 39.3783 9.25108C39.4872 7.8803 39.7012 6.51907 40.0188 5.1785C40.0562 4.9989 40.1266 4.82715 40.2269 4.67135V4.6483Z" fill="#3A3B7B"/>
<path fill-rule="evenodd" clip-rule="evenodd" d="M4.31263 21.1889C4.2181 21.3915 4.19218 21.6173 4.23837 21.8346C4.2691 22.121 4.3366 22.4028 4.43933 22.6734C4.56759 23.0048 4.71111 23.3325 4.88807 23.7364C4.92876 23.8293 4.97129 23.9263 5.01579 24.0284C5.25443 24.5756 5.55386 25.2749 5.95326 26.2869C6.06631 26.5744 6.1667 26.8643 6.26779 27.1562C6.30862 27.2741 6.34961 27.3924 6.39156 27.5109C6.54193 27.9325 6.80067 28.3112 7.14364 28.6114C7.28927 28.7763 7.48244 28.8966 7.69904 28.9567C7.91988 29.018 8.15474 29.0141 8.37323 28.9455C8.59171 28.8769 8.7836 28.7468 8.924 28.5721C9.06164 28.4008 9.14349 28.1944 9.1594 27.9787C9.2487 27.5586 9.21822 27.123 9.07104 26.718C8.83745 26.0455 8.57136 25.3721 8.26452 24.7134L8.26311 24.7105C7.75833 23.6799 7.24523 22.6565 6.70784 21.6326L6.70382 21.6255C6.5465 21.3587 6.34206 21.1203 6.09967 20.9208C5.94232 20.7428 5.72526 20.6227 5.48556 20.5813C5.24076 20.5391 4.98827 20.5817 4.77319 20.7015C4.56972 20.8131 4.40843 20.9837 4.31263 21.1889Z" fill="#3A3B7B"/>
<path fill-rule="evenodd" clip-rule="evenodd" d="M12.0224 18.6513C11.2309 18.4546 10.4043 18.4259 9.60025 18.5674C8.97743 18.6262 8.36488 18.7641 7.93953 19.0372C7.7232 19.1762 7.54829 19.3547 7.451 19.5816C7.35318 19.8097 7.34069 20.0705 7.42086 20.3612C7.56723 20.8936 7.75731 21.4113 7.94672 21.9273L7.9774 22.0108L7.97814 22.0127C8.54845 23.5117 9.1242 25.0057 9.70519 26.4945C9.77294 26.7291 9.86875 26.9555 9.99068 27.169L9.99296 27.1729C10.154 27.4381 10.3606 27.6753 10.604 27.8746C10.7258 27.9841 10.8763 28.0599 11.0395 28.0938C11.2044 28.1279 11.3758 28.118 11.5351 28.0651C11.6945 28.0121 11.8356 27.9182 11.9432 27.7935C12.049 27.6708 12.1183 27.5231 12.1438 27.3658C12.2488 26.9386 12.2151 26.4907 12.0473 26.0824C11.9949 25.945 11.9538 25.8045 11.9105 25.6567C11.8961 25.6074 11.8814 25.5572 11.866 25.5061C13.1959 25.0072 14.6109 24.3363 15.1085 22.7756C15.3034 22.2362 15.3196 21.6522 15.155 21.1036C14.9902 20.5544 14.6521 20.0676 14.1874 19.7102C13.5548 19.21 12.8159 18.8485 12.0224 18.6513ZM9.82853 20.5657C9.85472 20.5584 9.8811 20.5517 9.90756 20.5454C10.7734 20.4148 11.6592 20.5889 12.4019 21.0355C12.7292 21.2539 12.8633 21.4967 12.8864 21.7303C12.9101 21.9708 12.819 22.2314 12.636 22.4819C12.2901 22.9551 11.659 23.3339 11.0889 23.4045C10.6733 22.4858 10.2512 21.53 9.82853 20.5657Z" fill="#3A3B7B"/>
<path d="M17.2991 16.9696C18.2417 16.5518 19.4092 16.4797 20.3228 16.7734C20.5529 16.8377 20.7525 16.9769 20.8876 17.167C21.0217 17.356 21.0836 17.5837 21.0629 17.8114C21.0616 17.9591 21.0238 18.1045 20.9527 18.2357C20.8803 18.3692 20.7755 18.484 20.6471 18.5705C20.5187 18.6569 20.3706 18.7125 20.2151 18.7323C20.0596 18.7522 19.9015 18.7359 19.754 18.6846L19.7428 18.6808L19.7322 18.6754C19.6568 18.6375 19.5766 18.609 19.4937 18.5904L19.4884 18.5893C18.8457 18.4254 18.2395 18.6969 18.0181 19.0305C17.9125 19.1895 17.8994 19.3501 17.9873 19.4961C18.0815 19.6525 18.3126 19.828 18.7801 19.9531C18.9087 19.987 19.0405 20.0197 19.1741 20.0529C19.5438 20.1448 19.928 20.2402 20.2995 20.3725L20.3009 20.373C22.0148 20.9989 22.653 22.2951 22.4345 23.5143C22.2184 24.72 21.1693 25.8173 19.5916 26.0761C19.0176 26.1982 18.4201 26.1744 17.8585 26.0071C17.2954 25.8392 16.7879 25.5329 16.3863 25.1185L16.3758 25.1077C16.2491 24.9515 16.1638 24.7681 16.126 24.5735C16.0912 24.3978 16.1095 24.2163 16.1787 24.0503C16.2474 23.8853 16.3637 23.7424 16.5138 23.6384C16.6723 23.5204 16.8634 23.4496 17.0634 23.4348C17.2628 23.4201 17.4623 23.4617 17.6373 23.5544C17.8121 23.6355 17.9748 23.7389 18.1207 23.8619L18.1235 23.8641C18.3817 24.0908 18.6941 24.1498 18.9937 24.0951C19.2977 24.0396 19.5835 23.867 19.7673 23.638C19.95 23.4104 20.0233 23.14 19.9363 22.8776C19.8487 22.6132 19.5854 22.317 19.007 22.0694C18.8558 22.0078 18.699 21.9581 18.5359 21.9097C18.492 21.8967 18.4472 21.8837 18.402 21.8705C18.2814 21.8354 18.1573 21.7992 18.0357 21.7593C17.9519 21.7319 17.8687 21.7059 17.7864 21.6801C17.5614 21.6098 17.3421 21.5413 17.131 21.4493C16.6715 21.2992 16.2746 21.0109 15.9992 20.6271C15.7227 20.2418 15.5836 19.781 15.6025 19.3136C15.604 18.1745 16.3515 17.3897 17.2991 16.9696Z" fill="#3A3B7B"/>
<path d="M29.2487 16.8484C29.0659 16.7627 28.8638 16.722 28.6607 16.73C28.4574 16.738 28.2595 16.7944 28.0847 16.8943C27.911 16.9934 27.7656 17.1322 27.6614 17.2984C27.5658 17.4383 27.4997 17.5948 27.4667 17.7591C27.4338 17.9233 27.4346 18.092 27.469 18.2558C27.503 18.4663 27.5408 18.671 27.578 18.8729C27.6397 19.207 27.6998 19.5336 27.7394 19.8665L27.7409 19.875C27.831 20.3972 27.8782 20.9253 27.8825 21.4545L27.8829 21.4621C27.9137 22.0336 27.7108 22.594 27.3177 23.0244L27.3114 23.0321C27.1835 23.1894 27.0125 23.3095 26.8174 23.3789C26.6225 23.4483 26.4112 23.4642 26.2073 23.425C26.0034 23.3857 25.8149 23.2928 25.6629 23.1565C25.5109 23.0203 25.4013 22.8456 25.3465 22.6531C25.2297 22.2473 25.1621 21.8299 25.1449 21.4093L25.3445 18.3601C25.3474 18.3203 25.3508 18.2794 25.3542 18.2382C25.3618 18.1456 25.3696 18.0513 25.3728 17.9633C25.3775 17.8338 25.3735 17.7007 25.3421 17.5747C25.3099 17.4459 25.2487 17.3234 25.1402 17.219C25.0328 17.1158 24.8878 17.0396 24.7053 16.9877C24.3753 16.896 24.0962 16.8989 23.8637 16.9936C23.631 17.0883 23.4717 17.2642 23.3589 17.4673C23.2469 17.6687 23.175 17.9072 23.1206 18.146C23.0803 18.3233 23.0478 18.5093 23.017 18.6864C23.0064 18.7475 22.9959 18.8074 22.9854 18.8656L22.9851 18.8673C22.8202 19.8385 22.7712 20.8247 22.8388 21.8066C22.8515 22.3372 22.9667 22.861 23.1789 23.3511C23.4183 23.9836 23.8518 24.5316 24.4223 24.9227C24.9941 25.3147 25.6763 25.5307 26.3787 25.5421C27.0812 25.5535 27.7707 25.3598 28.3559 24.9867C28.9402 24.6141 29.393 24.0801 29.6544 23.4553C30.0202 22.6595 30.1919 21.794 30.1565 20.9248C30.135 20.2902 30.099 19.6507 30.0632 19.0145C30.0456 18.7024 30.0281 18.391 30.0124 18.0815C30.0045 17.7712 29.8978 17.4705 29.7067 17.22C29.5885 17.0616 29.4311 16.9339 29.2487 16.8484Z" fill="#3A3B7B"/>
<path d="M35.7174 21.6296C35.6988 21.6522 35.6793 21.6756 35.6589 21.6999C35.5102 20.8768 35.3725 20.054 35.2345 19.23C35.185 18.9343 35.1352 18.6374 35.0852 18.3413L35.0796 18.3083L35.0613 18.2797C35.0269 18.226 35.0234 18.1734 35.0234 18.0611V18.0481L35.0214 18.0352C34.984 17.8033 34.8747 17.5874 34.7077 17.4159C34.5412 17.2449 34.325 17.1259 34.0871 17.0742C33.8496 17.018 33.6 17.0304 33.3698 17.1099C33.1402 17.1892 32.94 17.3316 32.7943 17.5195C32.6732 17.6636 32.5739 17.8235 32.4995 17.9944C32.3306 18.3624 32.1603 18.7314 31.9895 19.1013L31.9865 19.1077C31.5601 20.0313 31.1308 20.9611 30.7139 21.8982L30.7127 21.9012C30.4568 22.5088 30.2456 23.149 30.0351 23.7873C29.993 23.9147 29.951 24.042 29.9086 24.1691C29.8326 24.3705 29.7994 24.5844 29.8108 24.7983C29.797 24.9898 29.8447 25.1808 29.9477 25.3455C30.0527 25.5135 30.21 25.6457 30.3974 25.7236C30.596 25.8072 30.8181 25.8249 31.0284 25.774C31.2383 25.7232 31.4247 25.6069 31.5583 25.4435C31.7288 25.2421 31.8755 25.0225 31.9952 24.7899C32.3483 24.0966 32.6857 23.395 33.0216 22.6963C33.1516 22.4261 33.2779 22.1841 33.4216 21.9205C33.4315 21.953 33.4416 21.9847 33.452 22.0165C33.6026 22.6528 33.8568 23.2623 34.2052 23.8227C34.2711 23.9414 34.363 24.0451 34.4744 24.1268C34.5872 24.2095 34.7174 24.2675 34.8559 24.2969C34.9944 24.3264 35.138 24.3265 35.2766 24.2973C35.415 24.2682 35.5455 24.2101 35.6584 24.1279L35.8818 23.9674L37.6156 22.5657L37.5131 23.1928C37.3724 24.0548 37.2327 24.9097 37.0843 25.7647C36.9872 26.1437 36.9874 26.5395 37.0847 26.9184C37.1269 27.1316 37.2343 27.3279 37.3933 27.4822C37.5537 27.6379 37.759 27.7436 37.9827 27.7858C38.2064 27.8279 38.4382 27.8045 38.6479 27.7187C38.8545 27.6341 39.0303 27.4927 39.1532 27.3124C39.4391 26.972 39.617 26.5598 39.6659 26.125C39.7395 25.511 39.8226 24.8887 39.9058 24.2665C40.0016 23.5493 40.0974 22.8324 40.1783 22.1292L40.1786 22.127C40.2565 21.3572 40.2942 20.5843 40.2915 19.8109C40.3086 19.5666 40.2452 19.3231 40.1101 19.115C39.9746 18.9062 39.7738 18.7439 39.5365 18.651C39.2897 18.5433 39.0134 18.5145 38.7483 18.569C38.4849 18.623 38.2464 18.7563 38.0676 18.9493C37.7478 19.2332 37.4478 19.537 37.1695 19.8587L37.1676 19.8608C36.8638 20.2242 36.562 20.5947 36.2622 20.9628C36.0799 21.1865 35.8982 21.4098 35.7174 21.6296Z" fill="#3A3B7B"/>
</g>
<defs>
<clipPath id="clip0_2001_1068">
<rect width="47" height="29" fill="white"/>
</clipPath>
</defs>
</svg>
