<svg width="107" height="19" viewBox="0 0 107 19" fill="none" xmlns="http://www.w3.org/2000/svg">
<path d="M104.433 18.097C104.642 18.0714 104.849 18.0334 105.054 17.9834C105.342 17.8915 105.608 17.7388 105.833 17.5355C106.057 17.3323 106.236 17.0832 106.356 16.8051C106.519 16.3879 106.582 15.9386 106.542 15.4926C106.542 14.9965 106.542 14.459 106.542 13.8596C106.542 12.6607 106.542 11.2964 106.542 9.72547V3.16259C106.591 2.68744 106.486 2.20904 106.242 1.79833C105.987 1.37711 105.586 1.06442 105.116 0.919838C104.601 0.827976 104.077 0.800202 103.555 0.837154H88.6826L2.53812 0.516763C2.07476 0.517857 1.62756 0.687167 1.27967 0.993233C0.931784 1.2993 0.706871 1.7213 0.646761 2.18074C0.646761 3.16259 0.646761 4.24779 0.646761 5.28132C0.646761 7.34837 0.646761 9.41543 0.646761 11.4825C0.646761 12.516 0.646761 13.5495 0.646761 14.5831C0.60826 15.0661 0.629083 15.552 0.70877 16.03C0.837812 16.4491 1.10341 16.8129 1.46324 17.0635C1.84502 17.3058 2.29348 17.4215 2.74482 17.3943H4.18142H7.16831L30.0403 17.5079L68.7665 17.7456L94.8734 17.9523L101.974 18.035H94.8734H68.7665L30.0196 17.9937L7.14764 17.911H2.6518C2.09279 17.9441 1.53806 17.7955 1.07051 17.4873C0.600228 17.1615 0.257008 16.6832 0.0989929 16.1333C0.00635956 15.6082 -0.021411 15.0736 0.0163089 14.5417C0.0163089 13.5082 0.0163089 12.4747 0.0163089 11.4411C0.0163089 9.37408 0.0163089 7.30702 0.0163089 5.23997C0.0163089 4.20644 0.0163089 3.17292 0.0163089 2.13939C0.0917227 1.54841 0.379937 1.00518 0.827 0.611385C1.27406 0.217589 1.84933 0.000235293 2.4451 0L88.5895 0.475413L103.462 0.589102C104.016 0.555128 104.572 0.593345 105.116 0.70279C105.653 0.878242 106.106 1.24646 106.387 1.73632C106.654 2.19154 106.77 2.71995 106.718 3.24527C106.718 3.73103 106.718 4.20645 106.718 4.68187C106.718 6.55256 106.718 8.26821 106.718 9.84951C106.718 11.4308 106.718 12.7641 106.718 13.9836C106.718 14.5727 106.718 15.1205 106.718 15.6269C106.755 16.0891 106.681 16.5535 106.501 16.9808C106.366 17.266 106.172 17.5189 105.932 17.7222C105.691 17.9256 105.409 18.0746 105.105 18.1591C104.879 18.1777 104.652 18.1567 104.433 18.097Z" fill="#E0E0E0"/>
</svg>
