<svg width="5" height="5" viewBox="0 0 5 5" fill="none" xmlns="http://www.w3.org/2000/svg">
<path d="M4.25322 2.27378C4.225 2.68797 4.07631 3.08487 3.82543 3.41565C3.57456 3.74643 3.23245 3.99667 2.8412 4.13553C2.44996 4.27439 2.02666 4.29583 1.62338 4.19723C1.22011 4.09862 0.85446 3.88424 0.571438 3.58051C0.288416 3.27678 0.100352 2.89694 0.03042 2.48772C-0.0395118 2.0785 0.011744 1.65776 0.177841 1.27728C0.343939 0.8968 0.617644 0.573161 0.965287 0.346229C1.31293 0.119298 1.71932 -0.00104849 2.13447 6.88217e-06C2.71661 0.0215582 3.26647 0.272983 3.6636 0.69917C4.06072 1.12536 4.27276 1.69157 4.25322 2.27378Z" fill="#4CAF4F"/>
</svg>
